<?xml version="1.0" encoding="UTF-8"?>
<!DOCTYPE svg PUBLIC "-//W3C//DTD SVG 1.1//EN" "http://www.w3.org/Graphics/SVG/1.1/DTD/svg11.dtd">
<svg xmlns="http://www.w3.org/2000/svg" version="1.1" width="512px" height="512px" style="shape-rendering:geometricPrecision; text-rendering:geometricPrecision; image-rendering:optimizeQuality; fill-rule:evenodd; clip-rule:evenodd" xmlns:xlink="http://www.w3.org/1999/xlink">
<g><path style="opacity:0.985" fill="#000000" d="M 235.5,47.5 C 328.991,43.4778 398.158,82.1445 443,163.5C 472.958,230.304 470.625,295.971 436,360.5C 394.578,426.982 334.411,461.649 255.5,464.5C 166.609,460.164 102.776,418.164 64,338.5C 34.1887,261.645 43.8553,190.311 93,124.5C 130.312,80.0923 177.812,54.4256 235.5,47.5 Z M 272.5,80.5 C 348.642,91.8024 399.142,133.802 424,206.5C 441.555,278.818 423.055,339.985 368.5,390C 340.718,412.823 308.885,426.323 273,430.5C 272.5,313.834 272.333,197.167 272.5,80.5 Z"/></g>
</svg>
