<?xml version="1.0" encoding="UTF-8"?>
<!DOCTYPE svg PUBLIC "-//W3C//DTD SVG 1.1//EN" "http://www.w3.org/Graphics/SVG/1.1/DTD/svg11.dtd">
<svg xmlns="http://www.w3.org/2000/svg" version="1.1" width="512px" height="512px" style="shape-rendering:geometricPrecision; text-rendering:geometricPrecision; image-rendering:optimizeQuality; fill-rule:evenodd; clip-rule:evenodd" xmlns:xlink="http://www.w3.org/1999/xlink">
<g><path style="opacity:0.99" fill="#000000" d="M 40.5,20.5 C 45.9127,20.2288 51.2461,20.7288 56.5,22C 195.833,90 335.167,158 474.5,226C 490.956,238.661 494.79,254.494 486,273.5C 482.833,278 479,281.833 474.5,285C 334.068,353.883 193.401,422.216 52.5,490C 38.2284,491.949 28.0617,486.449 22,473.5C 20.4725,467.585 20.1392,461.585 21,455.5C 34.5346,400.361 48.5346,345.361 63,290.5C 65.4477,287.527 68.6144,286.027 72.5,286C 129.5,279.667 186.5,273.333 243.5,267C 253.36,264.779 256.527,258.946 253,249.5C 250.658,246.246 247.491,244.412 243.5,244C 184.794,237.625 126.127,230.959 67.5,224C 65.714,223.215 64.214,222.049 63,220.5C 48.5346,165.639 34.5346,110.639 21,55.5C 18.2162,38.3814 24.7162,26.7148 40.5,20.5 Z"/></g>
</svg>
