<?xml version="1.0" encoding="UTF-8"?>
<!DOCTYPE svg PUBLIC "-//W3C//DTD SVG 1.1//EN" "http://www.w3.org/Graphics/SVG/1.1/DTD/svg11.dtd">
<svg xmlns="http://www.w3.org/2000/svg" version="1.1" width="512px" height="512px" style="shape-rendering:geometricPrecision; text-rendering:geometricPrecision; image-rendering:optimizeQuality; fill-rule:evenodd; clip-rule:evenodd" xmlns:xlink="http://www.w3.org/1999/xlink">
<g><path style="opacity:0.991" fill="#000000" d="M 199.5,-0.5 C 236.833,-0.5 274.167,-0.5 311.5,-0.5C 319.148,2.31649 324.315,7.64982 327,15.5C 330.186,35.8052 333.186,56.1385 336,76.5C 336.308,77.3081 336.808,77.9747 337.5,78.5C 348.814,83.4868 359.481,89.4868 369.5,96.5C 388.46,88.902 407.46,81.402 426.5,74C 436.788,71.6517 445.288,74.485 452,82.5C 469.586,112.671 486.92,143.004 504,173.5C 506.249,181.258 505.249,188.592 501,195.5C 485.289,208.935 469.122,221.768 452.5,234C 450.876,235.117 449.876,236.617 449.5,238.5C 450.621,250.514 450.787,262.514 450,274.5C 465.167,286.333 480.333,298.167 495.5,310C 507.27,321.412 508.436,333.912 499,347.5C 485.081,371.003 471.414,394.67 458,418.5C 454.938,424.23 451.104,429.397 446.5,434C 437.891,439.045 429.225,439.379 420.5,435C 403.39,428.028 386.223,421.195 369,414.5C 359.249,421.631 348.749,427.631 337.5,432.5C 336.808,433.025 336.308,433.692 336,434.5C 333.186,454.863 330.186,475.196 327,495.5C 324.315,503.35 319.148,508.684 311.5,511.5C 274.167,511.5 236.833,511.5 199.5,511.5C 191.852,508.684 186.685,503.35 184,495.5C 181.014,474.593 177.847,453.76 174.5,433C 162.919,427.965 152.085,421.798 142,414.5C 122.833,422 103.667,429.5 84.5,437C 71.5586,439.611 62.0586,435.111 56,423.5C 39.6667,394.833 23.3333,366.167 7,337.5C 3.96885,326.519 6.80218,317.353 15.5,310C 30.6667,298.167 45.8333,286.333 61,274.5C 60.3333,261.833 60.3333,249.167 61,236.5C 44,222.833 27,209.167 10,195.5C 3.66657,184.467 4.33324,173.801 12,163.5C 27.9192,136.664 43.5858,109.664 59,82.5C 65.7115,74.485 74.2115,71.6517 84.5,74C 103.667,81.5 122.833,89 142,96.5C 152.309,89.5496 163.142,83.3829 174.5,78C 177.847,57.2404 181.014,36.407 184,15.5C 186.685,7.64982 191.852,2.31649 199.5,-0.5 Z M 248.5,170.5 C 294.684,170.538 324.517,192.538 338,236.5C 344.548,272.195 333.715,301.362 305.5,324C 270.139,346.76 235.473,345.76 201.5,321C 172.253,293.844 164.086,261.344 177,223.5C 191.076,192.581 214.91,174.914 248.5,170.5 Z"/></g>
</svg>
