<?xml version="1.0" standalone="no"?>
<!DOCTYPE svg PUBLIC "-//W3C//DTD SVG 20010904//EN"
 "http://www.w3.org/TR/2001/REC-SVG-20010904/DTD/svg10.dtd">
<svg version="1.0" xmlns="http://www.w3.org/2000/svg"
 width="193.000000pt" height="197.000000pt" viewBox="0 0 193.000000 197.000000"
 preserveAspectRatio="xMidYMid meet">

<g transform="translate(0.000000,197.000000) scale(0.100000,-0.100000)"
fill="#000000" stroke="none">
<path d="M265 1946 c-110 -28 -197 -96 -241 -189 l-24 -52 0 -726 0 -725 25
-50 c35 -71 98 -132 174 -168 l66 -31 695 0 695 0 57 23 c79 32 154 102 189
177 l29 60 0 711 c0 628 -2 716 -16 758 -24 69 -108 156 -186 192 l-63 29
-675 2 c-515 1 -687 -1 -725 -11z m484 -495 c58 -18 119 -55 149 -91 28 -32
62 -117 62 -153 l0 -38 -97 3 c-95 3 -98 4 -101 27 -10 67 -84 108 -173 98
-86 -10 -125 -54 -103 -115 14 -39 50 -59 184 -97 140 -41 216 -79 258 -131
79 -96 65 -257 -31 -341 -74 -65 -233 -98 -359 -74 -152 30 -250 123 -265 252
l-6 49 101 0 100 0 7 -27 c11 -46 34 -74 78 -94 98 -44 217 -2 217 76 0 60
-45 90 -195 129 -125 33 -198 69 -241 120 -45 52 -57 94 -52 181 3 62 8 80 33
117 61 86 155 126 297 127 49 1 98 -6 137 -18z m595 -220 c39 -26 55 -57 56
-109 0 -74 -50 -122 -127 -122 -70 0 -122 52 -123 123 -1 101 111 162 194 108z
m-20 -350 c37 -39 67 -137 73 -243 l6 -88 -127 0 -126 0 0 56 c0 63 25 184 47
229 39 78 81 94 127 46z m374 -181 l60 -150 -37 0 c-31 0 -40 5 -49 25 -10 23
-17 25 -71 25 -54 0 -59 -2 -65 -25 -5 -21 -12 -25 -46 -25 l-40 0 21 53 c12
28 37 93 56 142 44 113 38 105 77 105 l34 0 60 -150z"/>
<path d="M1587 718 c-22 -58 -22 -58 19 -58 38 0 39 2 9 73 l-12 28 -16 -43z"/>
</g>
</svg>
